# xmcd
#
# Track frame offsets: 
#        150
#        16671
#        46273
#        76081
#        107384
#        135760
#        153809
#        172429
#        191678
#        214177
#        235756
#        259031
#        281964
#        317865
#
# Disc length: 4554 seconds
#
# Revision: 0
# Processed by: cddbd v1.5.2PL0 Copyright (c) Steve Scherf et al.
# Submitted via: ExactAudioCopy v0.95a5
#
DISCID=b311c80e
DTITLE=Various Artist - 34 th Blues Music Awards 2013
DYEAR=2013
DGENRE=Blues
TTITLE0=Get Right Church - Heriutage Blues Orchestra
TTITLE1=Calling all Fools - Rick Estrin and the Nightcats
TTITLE2=Sold too much - John Nemeth
TTITLE3=Misty Blue - Dorothy Moore
TTITLE4=Please Forgive Me - The Mannish Boys
TTITLE5=Goin' Down Slow - Eric Bibb
TTITLE6=I Wan't Cry - Janiva Magness
TTITLE7=Tragedy - Harrison Kennedy
TTITLE8=Have You Heard About Jimy - Milkton Hopkins and Jewel Brown
TTITLE9=She Didn't Cut Me Loose - Curtis Salgado
TTITLE10=I Won't Do That - Joe Louis Walker
TTITLE11=Moonlight Over the Mississippi - Royal Southern Brotherhood
TTITLE12=It'll Turn Around - Nick Moss
TTITLE13=Geechee Women - Shakura and Aida
EXTD=
EXTT0=
EXTT1=
EXTT2=
EXTT3=
EXTT4=
EXTT5=
EXTT6=
EXTT7=
EXTT8=
EXTT9=
EXTT10=
EXTT11=
EXTT12=
EXTT13=
PLAYORDER=
